<svg xmlns="http://www.w3.org/2000/svg" width="28" height="28" viewBox="0 0 28 28">
  <g fill="none" fill-rule="evenodd">
    <rect width="28" height="28"/>
    <rect width="28" height="28"/>
    <g stroke="#495056" stroke-width="1.5" transform="translate(2 2)">
      <path stroke-linejoin="round" d="M5.25 16.75L5.25 3.02411168C5.25391512 1.76970955 6.31563976.753746373 7.62654321.75M18.25 16.75L18.25 3.02411168C18.2539151 1.76970955 19.3156398.753746373 20.6265432.75"/>
      <line x1="4.75" x2="18.5" y1="12.75" y2="12.75" stroke-linejoin="round"/>
      <line x1="4.75" x2="18.5" y1="6.25" y2="6.25" stroke-linejoin="round"/>
      <path d="M0,23.2498165 C2.34305793,23.2503641 4.55597564,22.1439729 6,20.25 C7.4443047,22.1436401 9.65702457,23.25 12,23.25 C14.3429754,23.25 16.5556953,22.1436401 18,20.25 C19.4440244,22.1439729 21.6569421,23.2503641 24,23.2498165"/>
    </g>
  </g>
</svg>
