<svg xmlns="http://www.w3.org/2000/svg" width="28" height="28" viewBox="0 0 28 28">
  <g fill="none" fill-rule="evenodd">
    <rect width="28" height="28"/>
    <rect width="28" height="28"/>
    <rect width="8" height="8" x="10" y="10" stroke="#495056" stroke-width="1.5" rx="1"/>
    <path stroke="#495056" stroke-width="1.5" d="M3.42700631 8.67386409L9.42700631 11.5071974C9.77684099 11.6723971 10 12.0245672 10 12.4114461L10 15.5885539C10 15.9754328 9.77684099 16.3276029 9.42700631 16.4928026L3.42700631 19.3261359C2.92760357 19.561965 2.33158042 19.3482963 2.09575135 18.8488936 2.0327 18.7153731 2 18.5695463 2 18.4218873L2 9.57811274C2 9.02582799 2.44771525 8.57811274 3 8.57811274 3.14765907 8.57811274 3.29348579 8.61081274 3.42700631 8.67386409zM18.5729937 11.5071974L24.5729937 8.67386409C25.0723964 8.43803502 25.6684196 8.65170369 25.9042486 9.15110643 25.9673 9.28462694 26 9.43045367 26 9.57811274L26 18.4218873C26 18.974172 25.5522847 19.4218873 25 19.4218873 24.8523409 19.4218873 24.7065142 19.3891873 24.5729937 19.3261359L18.5729937 16.4928026C18.223159 16.3276029 18 15.9754328 18 15.5885539L18 12.4114461C18 12.0245672 18.223159 11.6723971 18.5729937 11.5071974z"/>
  </g>
</svg>
