<svg xmlns="http://www.w3.org/2000/svg" width="28" height="28" viewBox="0 0 28 28">
  <g fill="none" fill-rule="evenodd">
    <rect width="28" height="28"/>
    <rect width="28" height="28"/>
    <path stroke="#495056" stroke-width="1.5" d="M21.25,6.75 L21.25,15 C21.25,17.2781746 20.3265873,19.3406746 18.8336309,20.8336309 C17.3406746,22.3265873 15.2781746,23.25 13,23.25 C10.7218254,23.25 8.65932541,22.3265873 7.16636906,20.8336309 C5.6734127,19.3406746 4.75,17.2781746 4.75,15 L4.75,15 L4.75,6.75 L21.25,6.75 Z"/>
    <path stroke="#495056" stroke-width="1.5" d="M27.25,8.25 L27.25,9 C27.25,10.0355339 26.830267,10.9730339 26.1516504,11.6516504 C25.4730339,12.330267 24.5355339,12.75 23.5,12.75 C22.4644661,12.75 21.5269661,12.330267 20.8483496,11.6516504 C20.169733,10.9730339 19.75,10.0355339 19.75,9 L19.75,9 L19.75,8.25 L27.25,8.25 Z" transform="rotate(-90 23.5 10.5)"/>
  </g>
</svg>
