<svg xmlns="http://www.w3.org/2000/svg" width="28" height="28" viewBox="0 0 28 28">
  <g fill="none" fill-rule="evenodd">
    <rect width="28" height="28"/>
    <rect width="28" height="28"/>
    <path stroke="#495056" stroke-width="1.5" d="M22,5.25 C23.0355339,5.25 23.9730339,5.66973305 24.6516504,6.34834957 C25.330267,7.02696609 25.75,7.96446609 25.75,9 C25.75,9.92774095 25.4130186,10.7767373 24.8549767,11.4314703 C24.4693006,11.8839719 23.9778759,12.2434301 23.4190833,12.4720622 C23.6347513,13.2779519 23.75,14.1255169 23.75,15 C23.75,17.6923882 22.6586941,20.1298882 20.8942911,21.8942911 C19.1298882,23.6586941 16.6923882,24.75 14,24.75 C11.3076118,24.75 8.87011184,23.6586941 7.10570888,21.8942911 C5.34130592,20.1298882 4.25,17.6923882 4.25,15 C4.25,14.1254122 4.36527029,13.2777476 4.58121659,12.4713897 C4.0224248,12.2430943 3.53107629,11.8839289 3.14542571,11.4317266 C2.58711542,10.7770687 2.25,9.9279255 2.25,9 C2.25,7.96446609 2.66973305,7.02696609 3.34834957,6.34834957 C4.02696609,5.66973305 4.96446609,5.25 6,5.25 C6.73681328,5.25 7.423897,5.4627103 8.00353276,5.82962874 C8.35951576,6.05497151 8.67487474,6.33867129 8.93648664,6.66706344 C10.4122536,5.76779485 12.1456358,5.25 14,5.25 C15.8545187,5.25 17.5880393,5.76788709 19.0640847,6.66656935 C19.3254075,6.33818393 19.640767,6.05460335 19.9967753,5.8293438 C20.5763117,5.46264977 21.2632986,5.25 22,5.25 Z"/>
    <circle cx="11" cy="14" r="1" fill="#495056"/>
    <circle cx="17" cy="14" r="1" fill="#495056"/>
    <path stroke="#495056" stroke-linecap="round" stroke-width="1.5" d="M14,17.9971313 C14,19.3304647 13.3333333,19.9971313 12,19.9971313"/>
    <path stroke="#495056" stroke-linecap="round" stroke-width="1.5" d="M16,17.9971313 C16,19.3304647 15.3333333,19.9971313 14,19.9971313" transform="matrix(-1 0 0 1 30 0)"/>
    <rect width="2" height="2" x="13" y="16" fill="#495056" rx=".5"/>
  </g>
</svg>
