<?xml version="1.0" encoding="UTF-8"?>
<svg width="28px" height="28px" viewBox="0 0 28 28" version="1.1" xmlns="http://www.w3.org/2000/svg" xmlns:xlink="http://www.w3.org/1999/xlink">
    <title>ic-restaurant-28x28-gray-700</title>
    <g id="Symbol" stroke="none" stroke-width="1" fill="none" fill-rule="evenodd">
        <g id="Amenity/Restaurant/28x28/gray-700">
            <rect id="empty_space" x="0" y="0" width="28" height="28"></rect>
            <g id="Amenity/Restaurant/MD/gray-600">
                <rect id="Rectangle" fill-opacity="0" fill="#FFFFFF" fill-rule="nonzero" x="0" y="0" width="28" height="28"></rect>
                <polygon id="Fill-7" points="0.5 28 27.5 28 27.5 1 0.5 1"></polygon>
                <line x1="5.75" y1="4.75" x2="5.75" y2="24.25" id="Stroke-50" stroke="#495056" stroke-width="1.5" stroke-linejoin="round"></line>
                <path d="M2.5,4.75 L2.5,9.4375 C2.5,12.25 5.75,12.25 5.75,12.25" id="Stroke-51" stroke="#495056" stroke-width="1.5" stroke-linejoin="round"></path>
                <path d="M9,4.75 L9,9.4375 C9,12.25 5.75,12.25 5.75,12.25" id="Stroke-52" stroke="#495056" stroke-width="1.5" stroke-linejoin="round"></path>
                <path d="M22.25,15.67225 C22.25,15.67225 26.25,15.25 26.25,14.5 C26.25,13.75 25.5,4.25 22.25,4.25 L22.25,24.25" id="Stroke-53" stroke="#495056" stroke-width="1.5" stroke-linejoin="round"></path>
                <circle id="Oval" stroke="#495056" stroke-width="1.5" stroke-linejoin="round" fill-rule="nonzero" cx="14" cy="19.25" r="5"></circle>
            </g>
        </g>
    </g>
</svg>