<svg xmlns="http://www.w3.org/2000/svg" width="28" height="28" viewBox="0 0 28 28">
  <g fill="none" fill-rule="evenodd">
    <rect width="28" height="28"/>
    <rect width="28" height="28"/>
    <path fill="#495056" fill-rule="nonzero" d="M9.0000295,10.5815051 L8.99992214,12.2322512 C6.92007453,13.3162903 5.5,15.4923071 5.5,18 C5.5,21.5898509 8.41014913,24.5 12,24.5 C14.8919061,24.5 17.3427154,22.6114399 18.1863828,20.0003648 L19.7478729,20.0003581 C18.8596627,23.4506308 15.7275499,26 12,26 C7.581722,26 4,22.418278 4,18 C4,14.6426112 6.06818353,11.7682725 9.0000295,10.5815051 Z"/>
    <circle cx="13" cy="6" r="2.25" stroke="#495056" stroke-width="1.5"/>
    <path stroke="#495056" stroke-linecap="round" stroke-width="1.5" d="M13,9 L13,16 C13,17.1045695 13.8954305,18 15,18 L20.6071083,18 C21.4222324,18 22.1557995,18.4946818 22.4613138,19.2503856 L24,23.0563965 L24,23.0563965"/>
    <line x1="13" x2="19.366" y1="13" y2="13" stroke="#495056" stroke-linecap="round" stroke-width="1.5"/>
  </g>
</svg>
