<svg width="28" height="28" viewBox="0 0 28 28" fill="none" xmlns="http://www.w3.org/2000/svg">
<circle cx="14" cy="21.4375" r="2.75" stroke="#495056" stroke-width="1.5"/>
<path fill-rule="evenodd" clip-rule="evenodd" d="M21.8128 14.4224C19.8906 12.283 17.1025 10.9375 14 10.9375C10.8844 10.9375 8.08579 12.2944 6.16284 14.4496L7.29639 15.5831C8.92783 13.7166 11.3262 12.5375 14 12.5375C16.6607 12.5375 19.0486 13.705 20.6795 15.5557L21.8128 14.4224Z" fill="#495056"/>
<mask id="mask0" mask-type="alpha" maskUnits="userSpaceOnUse" x="6" y="10" width="16" height="6">
<path fill-rule="evenodd" clip-rule="evenodd" d="M21.8128 14.4224C19.8906 12.283 17.1025 10.9375 14 10.9375C10.8844 10.9375 8.08579 12.2944 6.16284 14.4496L7.29639 15.5831C8.92783 13.7166 11.3262 12.5375 14 12.5375C16.6607 12.5375 19.0486 13.705 20.6795 15.5557L21.8128 14.4224Z" fill="white"/>
</mask>
<g mask="url(#mask0)">
</g>
<path fill-rule="evenodd" clip-rule="evenodd" d="M26.7668 9.46838C23.5741 6.0642 19.0354 3.9375 14 3.9375C8.95149 3.9375 4.40229 6.07528 1.20825 9.49499L2.34035 10.6271C5.24419 7.4966 9.39331 5.5375 14 5.5375C18.5936 5.5375 22.7322 7.48547 25.6348 10.6004L26.7668 9.46838Z" fill="#495056"/>
<mask id="mask1" mask-type="alpha" maskUnits="userSpaceOnUse" x="1" y="3" width="26" height="8">
<path fill-rule="evenodd" clip-rule="evenodd" d="M26.7668 9.46838C23.5741 6.0642 19.0354 3.9375 14 3.9375C8.95149 3.9375 4.40229 6.07528 1.20825 9.49499L2.34035 10.6271C5.24419 7.4966 9.39331 5.5375 14 5.5375C18.5936 5.5375 22.7322 7.48547 25.6348 10.6004L26.7668 9.46838Z" fill="white"/>
</mask>
<g mask="url(#mask1)">
</g>
</svg>
