<svg xmlns="http://www.w3.org/2000/svg" width="20" height="20" viewBox="0 0 20 20">
  <g fill="none" fill-rule="evenodd">
    <rect width="20" height="20"/>
    <path stroke="#495056" stroke-width="1.5" d="M10,2.75 C11.4490788,2.75 12.760703,3.34243452 13.710235,4.29944309 C14.6618876,5.25858901 15.25,6.58377353 15.25,8.04724409 C15.25,10.0691215 13.4375103,13.0000775 9.99940929,16.8762469 C6.56225679,12.9997009 4.75,10.0689916 4.75,8.04724409 C4.75,6.58377353 5.33811244,5.25858901 6.28976503,4.29944309 C7.23929696,3.34243452 8.55092116,2.75 10,2.75 L10,2.75 Z M10,6.125 C9.48223305,6.125 9.01348305,6.33486652 8.67417479,6.67417479 C8.33486652,7.01348305 8.125,7.48223305 8.125,8 C8.125,8.51776695 8.33486652,8.98651695 8.67417479,9.32582521 C9.01348305,9.66513348 9.48223305,9.875 10,9.875 C10.517767,9.875 10.986517,9.66513348 11.3258252,9.32582521 C11.6651335,8.98651695 11.875,8.51776695 11.875,8 C11.875,7.48223305 11.6651335,7.01348305 11.3258252,6.67417479 C10.986517,6.33486652 10.517767,6.125 10,6.125 Z"/>
  </g>
</svg>
