<svg xmlns="http://www.w3.org/2000/svg" width="24" height="24" viewBox="0 0 24 24">
    <g fill="none" fill-rule="evenodd">
        <g>
            <g>
                <path d="M0 0H24V24H0z" transform="translate(-16 -582) translate(16 582)"/>
                <g stroke="#495056" stroke-width="1.5" transform="translate(-16 -582) translate(16 582) translate(2 2)">
                    <path d="M10 20c3.533-1.667 5.333-5.533 5.333-10S13.533 1.667 10 0M10 20c-3.533-1.667-5.333-5.533-5.333-10S6.467 1.667 10 0M10 20L10 19.067 10 .933 10 0"/>
                    <circle cx="10" cy="10" r="10" stroke-linecap="square"/>
                    <path d="M0 7L20 7M0 13L20 13"/>
                </g>
            </g>
        </g>
    </g>
</svg>
